M48
;DRILL file {KiCad 5.0.0-fee4fd1~66~ubuntu18.04.1} date Sun Aug 26 10:57:18 2018
;FORMAT={-:-/ absolute / inch / decimal}
FMAT,2
INCH,TZ
T1C0.0354
T2C0.0670
T3C0.1570
%
G90
G05
M72
T1
X5.8661Y-2.01
X6.1339Y-2.01
X5.7661Y-2.01
X6.0339Y-2.01
T2
X3.4Y-2.625
X3.8Y-2.625
X3.5Y-5.625
X3.9Y-5.625
X8.1768Y-4.925
X8.5232Y-5.125
X4.25Y-4.875
X4.65Y-4.875
X8.425Y-6.3982
X8.625Y-6.0518
X8.Y-2.9
X8.4Y-2.9
X4.25Y-4.125
X4.65Y-4.125
X4.25Y-2.625
X4.65Y-2.625
X6.5Y-3.2
X6.9Y-3.2
X4.25Y-5.625
X4.65Y-5.625
X6.5Y-3.95
X6.9Y-3.95
X8.2Y-3.65
X8.2Y-4.05
X6.5Y-4.7
X6.9Y-4.7
X5.Y-4.7
X5.4Y-4.7
X3.4Y-3.375
X3.8Y-3.375
X5.Y-3.2
X5.4Y-3.2
X6.7568Y-5.5232
X7.1432Y-5.6268
X3.4Y-4.875
X3.8Y-4.875
X5.Y-2.45
X5.4Y-2.45
X5.75Y-4.6
X6.15Y-4.6
X7.25Y-2.525
X7.65Y-2.525
X7.25Y-3.275
X7.65Y-3.275
X7.25Y-4.775
X7.65Y-4.775
X8.8268Y-5.3
X9.1732Y-5.5
X5.75Y-5.35
X6.15Y-5.35
X7.775Y-6.0232
X7.975Y-5.6768
X5.75Y-3.85
X6.15Y-3.85
X5.75Y-2.35
X6.15Y-2.35
X5.Y-3.95
X5.4Y-3.95
X5.Y-5.45
X5.4Y-5.45
X4.25Y-3.375
X4.65Y-3.375
X7.25Y-4.025
X7.65Y-4.025
X6.5Y-2.45
X6.9Y-2.45
X3.4Y-4.125
X3.8Y-4.125
X5.75Y-3.1
X6.15Y-3.1
T3
X3.6Y-2.625
X3.7Y-5.625
X8.35Y-5.025
X4.45Y-4.875
X8.525Y-6.225
X8.2Y-2.9
X4.45Y-4.125
X4.45Y-2.625
X6.7Y-3.2
X4.45Y-5.625
X6.7Y-3.95
X8.2Y-3.85
X6.7Y-4.7
X5.2Y-4.7
X3.6Y-3.375
X5.2Y-3.2
X6.95Y-5.575
X3.6Y-4.875
X5.2Y-2.45
X5.95Y-4.6
X7.45Y-2.525
X7.45Y-3.275
X7.45Y-4.775
X9.Y-5.4
X5.95Y-5.35
X7.875Y-5.85
X5.95Y-3.85
X5.95Y-2.35
X5.2Y-3.95
X5.2Y-5.45
X4.45Y-3.375
X7.45Y-4.025
X6.7Y-2.45
X3.6Y-4.125
X5.95Y-3.1
T0
M30
