M48
;DRILL file {KiCad 5.0.0-fee4fd1~66~ubuntu18.04.1} date Sun Aug 26 10:57:18 2018
;FORMAT={-:-/ absolute / inch / decimal}
FMAT,2
INCH,TZ
T1C0.0157
T2C0.0394
T3C0.0591
T4C0.1260
%
G90
G05
M72
T1
X5.85Y-2.05
X6.2Y-2.11
X6.35Y-4.76
X6.36Y-3.94
X6.36Y-4.4
X6.4Y-3.64
X6.7Y-5.32
X7.33Y-3.
X7.7505Y-2.53
X7.76Y-2.49
X7.76Y-3.68
X7.77Y-2.2031
X7.77Y-2.2464
X7.77Y-2.2897
X7.8Y-4.5
X7.81Y-4.18
X7.83Y-2.74
X7.85Y-5.14
X7.88Y-2.34
X7.88Y-2.39
X7.92Y-2.8
X7.94Y-2.27
X7.94Y-2.55
X7.95Y-4.71
X7.97Y-3.79
X7.9749Y-2.8
X8.0213Y-2.8429
X8.0285Y-2.7985
X8.1Y-2.805
X8.12Y-2.43
X8.1915Y-2.79
X8.35Y-2.65
T2
X3.4465Y-4.45
X3.7535Y-4.45
X5.0465Y-3.525
X5.3535Y-3.525
X3.4465Y-3.7
X3.7535Y-3.7
X5.7965Y-3.425
X6.1035Y-3.425
X7.557Y-6.0632
X7.823Y-6.2168
X5.0465Y-4.275
X5.3535Y-4.275
X7.2965Y-3.6
X7.6035Y-3.6
X7.2965Y-2.85
X7.6035Y-2.85
X5.7965Y-4.175
X6.1035Y-4.175
X4.2965Y-5.2
X4.6035Y-5.2
X4.2965Y-4.45
X4.6035Y-4.45
X4.825Y-5.3965
X4.825Y-5.7035
X8.692Y-5.5982
X8.958Y-5.7518
X3.4465Y-5.2
X3.7535Y-5.2
X3.4465Y-2.95
X3.7535Y-2.95
X5.0465Y-5.025
X5.3535Y-5.025
X8.042Y-5.2232
X8.308Y-5.3768
X6.5465Y-5.025
X6.8535Y-5.025
X8.0465Y-4.2
X8.3535Y-4.2
X6.5465Y-3.525
X6.8535Y-3.525
X7.2965Y-4.35
X7.6035Y-4.35
X5.7965Y-4.925
X6.1035Y-4.925
X7.2965Y-5.1
X7.6035Y-5.1
X4.2965Y-3.7
X4.6035Y-3.7
X5.575Y-5.2965
X5.575Y-5.6035
X6.325Y-5.1965
X6.325Y-5.5035
X5.0465Y-2.775
X5.3535Y-2.775
X5.7965Y-2.675
X6.1035Y-2.675
X6.5465Y-4.275
X6.8535Y-4.275
X8.0465Y-3.225
X8.3535Y-3.225
X8.06Y-4.34
X8.06Y-4.44
X8.06Y-4.54
X8.06Y-4.64
X4.2965Y-2.95
X4.6035Y-2.95
X8.217Y-6.4432
X8.483Y-6.5968
X4.075Y-5.4715
X4.075Y-5.7785
X7.3603Y-5.8383
X7.4397Y-5.5417
X6.5465Y-2.775
X6.8535Y-2.775
T4
X8.32Y-3.42
X6.44Y-5.69
X3.36Y-2.12
X8.95Y-5.97
X4.05Y-5.075
T3
X5.0819Y-5.2925G85X5.05Y-5.35
G05
X5.1Y-5.25G85X5.1016Y-5.2728
G05
X5.3Y-5.25G85X5.2984Y-5.2728
G05
X5.3181Y-5.2925G85X5.35Y-5.35
G05
X4.3319Y-3.2175G85X4.3Y-3.275
G05
X4.35Y-3.175G85X4.3516Y-3.1978
G05
X4.55Y-3.175G85X4.5484Y-3.1978
G05
X4.5681Y-3.2175G85X4.6Y-3.275
G05
X7.3319Y-3.8675G85X7.3Y-3.925
G05
X7.35Y-3.825G85X7.3516Y-3.8478
G05
X7.55Y-3.825G85X7.5484Y-3.8478
G05
X7.5681Y-3.8675G85X7.6Y-3.925
G05
X6.5819Y-2.6075G85X6.55Y-2.55
G05
X6.6Y-2.65G85X6.6016Y-2.6272
G05
X6.8Y-2.65G85X6.7984Y-2.6272
G05
X6.8181Y-2.6075G85X6.85Y-2.55
G05
X3.4819Y-3.9675G85X3.45Y-4.025
G05
X3.5Y-3.925G85X3.5016Y-3.9478
G05
X3.7Y-3.925G85X3.6984Y-3.9478
G05
X3.7181Y-3.9675G85X3.75Y-4.025
G05
X5.8319Y-2.9425G85X5.8Y-3.
G05
X5.85Y-2.9G85X5.8516Y-2.9228
G05
X6.05Y-2.9G85X6.0484Y-2.9228
G05
X6.0681Y-2.9425G85X6.1Y-3.
G05
X3.4819Y-2.7825G85X3.45Y-2.725
G05
X3.5Y-2.825G85X3.5016Y-2.8022
G05
X3.7Y-2.825G85X3.6984Y-2.8022
G05
X3.7181Y-2.7825G85X3.75Y-2.725
G05
X3.5819Y-5.4675G85X3.55Y-5.525
G05
X3.6Y-5.425G85X3.6016Y-5.4478
G05
X3.8Y-5.425G85X3.7984Y-5.4478
G05
X3.8181Y-5.4675G85X3.85Y-5.525
G05
X8.3265Y-4.8296G85X8.2701Y-4.8634
G05
X8.3634Y-4.8018G85X8.3533Y-4.8223
G05
X8.5366Y-4.9018G85X8.5238Y-4.9208
G05
X8.531Y-4.9477G85X8.5299Y-5.0134
G05
X4.3319Y-4.7175G85X4.3Y-4.775
G05
X4.35Y-4.675G85X4.3516Y-4.6978
G05
X4.55Y-4.675G85X4.5484Y-4.6978
G05
X4.5681Y-4.7175G85X4.6Y-4.775
G05
X8.6023Y-6.406G85X8.5366Y-6.4049
G05
X8.6482Y-6.4116G85X8.6292Y-6.3988
G05
X8.7204Y-6.2015G85X8.6866Y-6.1451
G05
X8.7482Y-6.2384G85X8.7277Y-6.2283
G05
X8.0819Y-3.0575G85X8.05Y-3.
G05
X8.1Y-3.1G85X8.1016Y-3.0772
G05
X8.3Y-3.1G85X8.2984Y-3.0772
G05
X8.3181Y-3.0575G85X8.35Y-3.
G05
X4.3319Y-3.9675G85X4.3Y-4.025
G05
X4.35Y-3.925G85X4.3516Y-3.9478
G05
X4.55Y-3.925G85X4.5484Y-3.9478
G05
X4.5681Y-3.9675G85X4.6Y-4.025
G05
X4.3319Y-2.7825G85X4.3Y-2.725
G05
X4.35Y-2.825G85X4.3516Y-2.8022
G05
X4.55Y-2.825G85X4.5484Y-2.8022
G05
X4.5681Y-2.7825G85X4.6Y-2.725
G05
X6.5819Y-3.0425G85X6.55Y-3.1
G05
X6.6Y-3.G85X6.6016Y-3.0228
G05
X6.8Y-3.G85X6.7984Y-3.0228
G05
X6.8181Y-3.0425G85X6.85Y-3.1
G05
X4.3319Y-5.4675G85X4.3Y-5.525
G05
X4.35Y-5.425G85X4.3516Y-5.4478
G05
X4.55Y-5.425G85X4.5484Y-5.4478
G05
X4.5681Y-5.4675G85X4.6Y-5.525
G05
X6.5819Y-3.7925G85X6.55Y-3.85
G05
X6.6Y-3.75G85X6.6016Y-3.7728
G05
X6.8Y-3.75G85X6.7984Y-3.7728
G05
X6.8181Y-3.7925G85X6.85Y-3.85
G05
X8.3575Y-3.7319G85X8.3Y-3.7
G05
X8.3575Y-3.9681G85X8.3Y-4.
G05
X8.4Y-3.75G85X8.3772Y-3.7516
G05
X8.4Y-3.95G85X8.3772Y-3.9484
G05
X6.5819Y-4.5425G85X6.55Y-4.6
G05
X6.6Y-4.5G85X6.6016Y-4.5228
G05
X6.8Y-4.5G85X6.7984Y-4.5228
G05
X6.8181Y-4.5425G85X6.85Y-4.6
G05
X5.0819Y-4.5425G85X5.05Y-4.6
G05
X5.1Y-4.5G85X5.1016Y-4.5228
G05
X5.3Y-4.5G85X5.2984Y-4.5228
G05
X5.3181Y-4.5425G85X5.35Y-4.6
G05
X3.4819Y-3.2175G85X3.45Y-3.275
G05
X3.5Y-3.175G85X3.5016Y-3.1978
G05
X3.7Y-3.175G85X3.6984Y-3.1978
G05
X3.7181Y-3.2175G85X3.75Y-3.275
G05
X5.0819Y-3.0425G85X5.05Y-3.1
G05
X5.1Y-3.G85X5.1016Y-3.0228
G05
X5.3Y-3.G85X5.2984Y-3.0228
G05
X5.3181Y-3.0425G85X5.35Y-3.1
G05
X6.8767Y-5.3923G85X6.831Y-5.4396
G05
X6.9052Y-5.356G85X6.9008Y-5.3784
G05
X7.0983Y-5.4077G85X7.0909Y-5.4293
G05
X7.1048Y-5.4535G85X7.1208Y-5.5172
G05
X3.4819Y-4.7175G85X3.45Y-4.775
G05
X3.5Y-4.675G85X3.5016Y-4.6978
G05
X3.7Y-4.675G85X3.6984Y-4.6978
G05
X3.7181Y-4.7175G85X3.75Y-4.775
G05
X5.0819Y-2.6075G85X5.05Y-2.55
G05
X5.1Y-2.65G85X5.1016Y-2.6272
G05
X5.3Y-2.65G85X5.2984Y-2.6272
G05
X5.3181Y-2.6075G85X5.35Y-2.55
G05
X5.8319Y-4.4425G85X5.8Y-4.5
G05
X5.85Y-4.4G85X5.8516Y-4.4228
G05
X6.05Y-4.4G85X6.0484Y-4.4228
G05
X6.0681Y-4.4425G85X6.1Y-4.5
G05
X7.3319Y-2.6825G85X7.3Y-2.625
G05
X7.35Y-2.725G85X7.3516Y-2.7022
G05
X7.55Y-2.725G85X7.5484Y-2.7022
G05
X7.5681Y-2.6825G85X7.6Y-2.625
G05
X7.3319Y-3.1175G85X7.3Y-3.175
G05
X7.35Y-3.075G85X7.3516Y-3.0978
G05
X7.55Y-3.075G85X7.5484Y-3.0978
G05
X7.5681Y-3.1175G85X7.6Y-3.175
G05
X7.3319Y-4.6175G85X7.3Y-4.675
G05
X7.35Y-4.575G85X7.3516Y-4.5978
G05
X7.55Y-4.575G85X7.5484Y-4.5978
G05
X7.5681Y-4.6175G85X7.6Y-4.675
G05
X8.9765Y-5.2046G85X8.9201Y-5.2384
G05
X9.0134Y-5.1768G85X9.0033Y-5.1973
G05
X9.1866Y-5.2768G85X9.1738Y-5.2958
G05
X9.181Y-5.3227G85X9.1799Y-5.3884
G05
X5.8319Y-5.1925G85X5.8Y-5.25
G05
X5.85Y-5.15G85X5.8516Y-5.1728
G05
X6.05Y-5.15G85X6.0484Y-5.1728
G05
X6.0681Y-5.1925G85X6.1Y-5.25
G05
X7.9523Y-6.031G85X7.8866Y-6.0299
G05
X7.9982Y-6.0366G85X7.9792Y-6.0238
G05
X8.0704Y-5.8265G85X8.0366Y-5.7701
G05
X8.0982Y-5.8634G85X8.0777Y-5.8533
G05
X5.8319Y-3.6925G85X5.8Y-3.75
G05
X5.85Y-3.65G85X5.8516Y-3.6728
G05
X6.05Y-3.65G85X6.0484Y-3.6728
G05
X6.0681Y-3.6925G85X6.1Y-3.75
G05
X5.8319Y-2.5075G85X5.8Y-2.45
G05
X5.85Y-2.55G85X5.8516Y-2.5272
G05
X6.05Y-2.55G85X6.0484Y-2.5272
G05
X6.0681Y-2.5075G85X6.1Y-2.45
G05
X5.0819Y-3.7925G85X5.05Y-3.85
G05
X5.1Y-3.75G85X5.1016Y-3.7728
G05
X5.3Y-3.75G85X5.2984Y-3.7728
G05
X5.3181Y-3.7925G85X5.35Y-3.85
G05
T0
M30
