M48
;DRILL file {KiCad 5.0.2-bee76a0~70~ubuntu18.04.1} date mar 25 dic 2018 13:55:11 CET
;FORMAT={-:-/ absolute / inch / decimal}
FMAT,2
INCH,TZ
T1C0.0157
T2C0.0394
T3C0.0433
%
G90
G05
T1
X4.23Y-3.57
X4.46Y-3.565
X4.495Y-3.59
X4.535Y-4.005
X4.695Y-3.9
X4.77Y-3.76
X4.85Y-3.715
X4.955Y-3.995
T2
X4.29Y-4.06
X4.39Y-4.06
X4.49Y-4.06
X4.59Y-4.06
X4.69Y-4.06
X4.79Y-4.06
X5.385Y-3.61
X5.385Y-3.71
X5.385Y-3.81
X5.385Y-3.91
X4.29Y-3.46
X4.39Y-3.46
X4.49Y-3.46
X4.59Y-3.46
X4.69Y-3.46
X4.79Y-3.46
T3
X4.61Y-3.6341
X4.61Y-3.89
X4.7872Y-3.6341
X4.7872Y-3.89
T0
M30
